<svg width="40" height="40" viewBox="0 0 40 40" fill="none" xmlns="http://www.w3.org/2000/svg">
<path d="M32.3853 4.47169H33.9227V3.19049H30.7197C30.5498 3.19049 30.3869 3.25798 30.2667 3.37812C30.1466 3.49825 30.0791 3.66119 30.0791 3.83109V7.03408H31.3603V5.29166C34.9845 8.16849 37.4047 12.2943 38.1471 16.8616C38.8895 21.4288 37.9007 26.1088 35.3742 29.9854C32.8478 33.862 28.9655 36.6562 24.4874 37.8212C20.0092 38.9861 15.2575 38.4379 11.1622 36.2838L10.5601 37.4113C14.9146 39.7004 19.9638 40.2918 24.7294 39.0707C29.495 37.8497 33.6377 34.9033 36.355 30.8023C39.0723 26.7012 40.1706 21.7376 39.4372 16.873C38.7038 12.0085 36.1908 7.58929 32.3853 4.47169Z" fill="white"/>
<path d="M8.29885 34.4069C4.66595 31.533 2.23779 27.4055 1.49058 22.8339C0.743374 18.2624 1.73103 13.5766 4.25985 9.69554C6.78866 5.81449 10.6762 3.0182 15.16 1.85508C19.6438 0.691959 24.4004 1.24592 28.4969 3.40833L29.0991 2.28088C24.7446 -0.00825724 19.6954 -0.599602 14.9298 0.621414C10.1642 1.84243 6.02143 4.78888 3.30416 8.8899C0.586895 12.9909 -0.511433 17.9546 0.221974 22.8191C0.955381 27.6837 3.46831 32.1029 7.27389 35.2205H5.73645V36.5017H8.93945C9.10935 36.5017 9.27229 36.4342 9.39242 36.3141C9.51256 36.1939 9.58005 36.031 9.58005 35.8611V32.6581H8.29885V34.4069Z" fill="white"/>
<path d="M5.0957 19.8461C5.0957 22.7602 5.95982 25.6088 7.57879 28.0318C9.19776 30.4547 11.4989 32.3432 14.1911 33.4584C16.8834 34.5735 19.8458 34.8653 22.7039 34.2968C25.562 33.7283 28.1873 32.325 30.2478 30.2645C32.3084 28.2039 33.7116 25.5786 34.2801 22.7206C34.8487 19.8625 34.5569 16.9 33.4417 14.2078C32.3265 11.5155 30.4381 9.21442 28.0151 7.59545C25.5922 5.97649 22.7435 5.11237 19.8295 5.11237C15.9218 5.11237 12.1742 6.66467 9.41113 9.42779C6.64801 12.1909 5.0957 15.9385 5.0957 19.8461ZM33.2821 19.8461C33.2821 22.5068 32.4931 25.1077 31.0149 27.32C29.5367 29.5323 27.4357 31.2565 24.9776 32.2747C22.5194 33.2929 19.8146 33.5593 17.205 33.0402C14.5955 32.5212 12.1984 31.2399 10.3171 29.3586C8.43569 27.4772 7.15446 25.0802 6.63539 22.4706C6.11632 19.8611 6.38272 17.1562 7.40092 14.6981C8.41911 12.2399 10.1434 10.1389 12.3556 8.66073C14.5679 7.18254 17.1688 6.39356 19.8295 6.39356C23.3973 6.39356 26.819 7.81088 29.3419 10.3337C31.8647 12.8566 33.2821 16.2783 33.2821 19.8461Z" fill="white"/>
<path d="M7.6582 19.846C7.6582 22.2533 8.37204 24.6065 9.70945 26.6081C11.0469 28.6096 12.9478 30.1697 15.1718 31.0909C17.3958 32.0121 19.8431 32.2531 22.2041 31.7835C24.5651 31.3139 26.7338 30.1547 28.436 28.4525C30.1382 26.7503 31.2975 24.5815 31.7671 22.2205C32.2367 19.8595 31.9957 17.4122 31.0745 15.1882C30.1532 12.9642 28.5932 11.0633 26.5916 9.72587C24.5901 8.38846 22.2369 7.67462 19.8296 7.67462C16.6015 7.67462 13.5057 8.95696 11.2231 11.2395C8.94054 13.5221 7.6582 16.618 7.6582 19.846ZM26.6904 13.8948L27.9716 12.6136C29.606 14.4373 30.5747 16.7608 30.7198 19.2054H28.798V20.4866H30.7198C30.5772 22.9244 29.6156 25.2426 27.9908 27.0655L26.7096 25.7844L25.8 26.694L27.0812 27.9752C25.2542 29.6183 22.9231 30.5918 20.4702 30.7362V28.8144H19.189V30.7362C16.7512 30.5936 14.433 29.632 12.61 28.0072L13.8912 26.726L12.9816 25.8164L11.7004 27.0976C10.0689 25.2662 9.1069 22.9355 8.97143 20.4866H10.8612V19.2054H8.97143C9.11401 16.7676 10.0756 14.4494 11.7004 12.6265L12.9816 13.9076L13.8912 12.998L12.61 11.7168C14.433 10.092 16.7512 9.13043 19.189 8.98785V10.8776H20.4702V8.98785C22.908 9.13043 25.2262 10.092 27.0491 11.7168L25.7679 12.998L26.6904 13.8948Z" fill="white"/>
<path d="M20.4702 12.159H19.189V19.8462C19.1885 19.9305 19.2046 20.0141 19.2365 20.0921C19.2684 20.1702 19.3154 20.2412 19.3748 20.301L23.2184 24.1446L24.128 23.235L20.4702 19.5835V12.159Z" fill="white"/>
</svg>
